<svg width="37" height="43" viewBox="0 0 37 43" fill="none" xmlns="http://www.w3.org/2000/svg">
<path d="M0.903198 28.8528L0.903201 9.6176L10.5581 14.9607V23.5631L18.282 27.891L26.0059 23.5631V14.9607L35.6608 9.6176V28.8528L18.282 38.4704L0.903198 28.8528Z" fill="white"/>
<path fill-rule="evenodd" clip-rule="evenodd" d="M5.73065 12.2892L0.903198 9.61761L18.282 0L35.6608 9.61761L30.8333 12.2892V26.4484L18.282 33.6616L5.73064 26.4484L5.73065 12.2892ZM30.3104 12.5786L26.0059 14.9607V14.9073L18.282 10.5793L10.5581 14.9073V14.9607L6.25361 12.5786V26.1525L18.282 33.0652L30.3104 26.1525V12.5786Z" fill="white"/>
<line y1="-3.5" x2="8.83276" y2="-3.5" transform="matrix(0.866861 -0.49855 0 1 24.6667 41.2607)" stroke="white" stroke-width="7"/>
</svg>
