<svg width="43" height="43" viewBox="0 0 43 43" fill="none" xmlns="http://www.w3.org/2000/svg">
<path d="M18.9599 10.7309C20.3682 8.3656 23.9063 9.03073 24.4343 11.6429L24.4726 11.8944L24.9235 15.5795C25.0267 16.4246 25.3099 17.2377 25.7541 17.964C26.1983 18.6904 26.7931 19.313 27.4983 19.7899L27.7895 19.9745L30.9795 21.8729C33.3448 23.2812 32.6797 26.8193 30.0689 27.3476L29.8175 27.3859L26.1323 27.8368C25.287 27.9397 24.4736 28.2229 23.747 28.667C23.0205 29.1111 22.3976 29.706 21.9205 30.4113L21.7362 30.7011L19.8374 33.8925C18.4292 36.2578 14.8911 35.5927 14.3642 32.9823L14.3231 32.7302L13.8736 29.0454C13.7706 28.2 13.4875 27.3866 13.0434 26.6601C12.5993 25.9335 12.0044 25.3106 11.2991 24.8335L11.0093 24.6492L7.81938 22.7508C5.4526 21.3422 6.11772 17.8041 8.72959 17.2776L8.98167 17.2364L12.6665 16.7869C13.5116 16.6837 14.3247 16.4005 15.051 15.9563C15.7774 15.5121 16.4 14.9173 16.8769 14.2121L17.0612 13.9223L18.9599 10.7309ZM34.4278 8.74597C34.7003 8.8034 34.9512 8.93612 35.152 9.12904C35.3528 9.32196 35.4955 9.56734 35.5638 9.8373L35.5978 10.0225L35.7926 11.6243L37.181 12.4494C37.4345 12.5997 37.6377 12.8219 37.7648 13.0878C37.8919 13.3537 37.9372 13.6514 37.895 13.9431C37.8527 14.2348 37.7248 14.5074 37.5275 14.7263C37.3301 14.9452 37.0722 15.1006 36.7865 15.1729L36.5999 15.2065L34.998 15.4013L34.173 16.7897C34.0225 17.0431 33.8002 17.2462 33.5342 17.3731C33.2682 17.5 32.9706 17.5452 32.6789 17.5028C32.3873 17.4603 32.1148 17.3323 31.896 17.1349C31.6771 16.9375 31.5219 16.6795 31.4498 16.3937L31.4158 16.2086L31.221 14.6068L29.8326 13.7817C29.5791 13.6314 29.3759 13.4092 29.2488 13.1432C29.1217 12.8773 29.0764 12.5796 29.1187 12.2879C29.1609 11.9963 29.2888 11.7237 29.4862 11.5047C29.6835 11.2858 29.9414 11.1304 30.2271 11.0582L30.4137 11.0245L32.0156 10.8297L32.8406 9.44131C32.9995 9.17424 33.238 8.96358 33.5226 8.83889C33.8072 8.71419 34.1238 8.6817 34.4278 8.74597Z" fill="#7FA0E3"/>
</svg>
